Coordinates
version=1
nRows=4
nColumns=60
inDegrees=yes

Units are S.I. units (second, meters, Newtons, ...)
If the header above contains a line with 'inDegrees', this indicates whether rotational values are in degrees (yes) or radians (no).

endheader
time	pelvis_tilt	pelvis_list	pelvis_rotation	pelvis_tx	pelvis_ty	pelvis_tz	hip_flexion_r	hip_adduction_r	hip_rotation_r	knee_angle_r_beta	knee_angle_r	ankle_angle_r	subtalar_angle_r	mtp_angle_r	hip_flexion_l	hip_adduction_l	hip_rotation_l	knee_angle_l_beta	knee_angle_l	ankle_angle_l	subtalar_angle_l	mtp_angle_l	L5_S1_Flex_Ext	L5_S1_Lat_Bending	L5_S1_axial_rotation	L4_L5_Flex_Ext	L4_L5_Lat_Bending	L4_L5_axial_rotation	L3_L4_Flex_Ext	L3_L4_Lat_Bending	L3_L4_axial_rotation	L2_L3_Flex_Ext	L2_L3_Lat_Bending	L2_L3_axial_rotation	L1_L2_Flex_Ext	L1_L2_Lat_Bending	L1_L2_axial_rotation	L1_T12_Flex_Ext	L1_T12_Lat_Bending	L1_T12_axial_rotation	Abs_r3	Abs_r2	Abs_r1	Abs_t1	Abs_t2	arm_flex_r	arm_add_r	arm_rot_r	elbow_flex_r	pro_sup_r	wrist_flex_r	wrist_dev_r	arm_flex_l	arm_add_l	arm_rot_l	elbow_flex_l	pro_sup_l	wrist_flex_l	wrist_dev_l
     50.78000000	      0.74846028	      1.30197576	     94.54878289	      0.41183160	      0.90718427	      0.36970021	     22.47475487	     -4.93589617	     -1.88770659	      0.52415086	    -30.03163231	      8.49983253	      0.00000000	      0.00000000	     23.30226439	     -6.54554345	      0.25428733	      0.47624460	    -27.28680574	      7.49705952	      0.00000000	      0.00000000	    -10.01624022	      0.28859747	     -0.06474707	    -18.60115972	      0.38383463	     -0.06879376	    -16.45568106	      0.70169588	     -0.06879376	    -11.44756095	      0.70169588	     -0.05665369	     -9.30108067	      0.58850795	     -0.05260699	     -5.72327966	      0.44703748	     -0.04856030	    -71.54500229	      3.26467226	     -0.36010377	      0.00000000	      0.00000000	     46.26970603	    -23.97277722	     14.65088237	     68.19543318	     68.70563365	      1.80383407	     18.06007378	     53.56872948	    -26.32519569	     23.10342004	     64.14445329	     63.74124830	     10.25543380	     18.05027577
     50.79000000	      0.69383209	      2.12564245	     94.42864855	      0.41203703	      0.90958980	      0.36630956	     21.11499385	     -4.83104020	     -1.77643530	      0.51630011	    -29.58181742	      8.64013042	      0.00000000	      0.00000000	     21.89448213	     -6.60678761	      0.18998150	      0.46856117	    -26.84657721	      7.77176995	      0.00000000	      0.00000000	     -9.93719666	      0.27872798	     -0.06426711	    -18.45436791	      0.37070822	     -0.06828380	    -16.32582039	      0.67769922	     -0.06828380	    -11.35722206	      0.67769922	     -0.05623372	     -9.22768082	      0.56838211	     -0.05221703	     -5.67811417	      0.43174965	     -0.04820033	    -70.98040201	      3.15302671	     -0.35743439	      0.00000000	      0.00000000	     44.28781075	    -24.07564174	     14.07665994	     69.39673120	     68.68833143	      1.71393784	     18.10808110	     51.64362817	    -26.61963031	     22.47651203	     65.27409075	     63.76953954	     10.26541004	     18.05790648
     50.80000000	      0.65463664	      2.91195380	     94.29192721	      0.41228033	      0.91185190	      0.36281474	     19.81457930	     -4.72191848	     -1.70782641	      0.50915472	    -29.17241630	      8.76022772	      0.00000000	      0.00000000	     20.54457264	     -6.69327062	      0.05778049	      0.46165246	    -26.45073746	      7.99870192	      0.00000000	      0.00000000	     -9.84928571	      0.26855811	     -0.06947093	    -18.29110850	      0.35718228	     -0.07381286	    -16.18139150	      0.65297218	     -0.07381286	    -11.25674864	      0.65297218	     -0.06078706	     -9.14604671	      0.54764369	     -0.05644513	     -5.62788186	      0.41599651	     -0.05210320	    -70.35246292	      3.03798303	     -0.38637648	      0.00000000	      0.00000000	     42.32706815	    -24.13185178	     13.52782711	     70.62354026	     68.69029344	      1.62345681	     18.29586840	     49.57067871	    -26.92185621	     21.65006321	     66.48105233	     63.89421292	     10.27833088	     18.07107425
     50.81000000	      0.63666516	      3.51094774	     94.14599173	      0.41253917	      0.91373015	      0.35926719	     18.72549037	     -4.62318564	     -1.71973350	      0.50207634	    -28.76685505	      8.90896318	      0.00000000	      0.00000000	     19.40758665	     -6.79335498	     -0.15020547	      0.45488371	    -26.06291666	      8.25311405	      0.00000000	      0.00000000	     -9.71294337	      0.25868314	     -0.07578525	    -18.03790713	      0.34404858	     -0.08052183	    -15.95739466	      0.62896219	     -0.08052183	    -11.10092298	      0.62896219	     -0.06631210	     -9.01943921	      0.52750666	     -0.06157552	     -5.54997584	      0.40070018	     -0.05683894	    -69.37858321	      2.92627542	     -0.42149485	      0.00000000	      0.00000000	     40.46124269	    -24.20405167	     13.31407643	     71.48053478	     68.69239051	      1.58430677	     18.45339696	     47.59961141	    -27.23567551	     21.21109779	     67.21576649	     63.99301649	     10.29724204	     18.06156185
